PathFileType	4	(X/Y/Z)	C:/Users/opensim2020/Desktop/walking_exp_matlab/subject02_walking05_straight_02.trc																																																																																																																												
DataRate	CameraRate	NumFrames	NumMarkers	Units	OrigDataRate	OrigDataStartFrame	OrigNumFrames																																																																																																																								
100	100	4	42	mm	100	1517	243																																																																																																																								
Frame#	Time	LFHD			RFHD			LBHD			RBHD			C7			T10			CLAV			STRN			RBAK			LSHO			LUPA			LELB			LFRM			LWRA			LWRB			LFIN			RSHO			RUPA			RELB			RFRM			RWRA			RWRB			RFIN			LASI			RASI			LPSI			RPSI			LTHI			LKNE			LTIB			LANK			LHEE			LTOE			RTHI			RKNE			RTIB			RANK			RHEE			RTOE			*39			*40			*41		
		X1	Y1	Z1	X2	Y2	Z2	X3	Y3	Z3	X4	Y4	Z4	X5	Y5	Z5	X6	Y6	Z6	X7	Y7	Z7	X8	Y8	Z8	X9	Y9	Z9	X10	Y10	Z10	X11	Y11	Z11	X12	Y12	Z12	X13	Y13	Z13	X14	Y14	Z14	X15	Y15	Z15	X16	Y16	Z16	X17	Y17	Z17	X18	Y18	Z18	X19	Y19	Z19	X20	Y20	Z20	X21	Y21	Z21	X22	Y22	Z22	X23	Y23	Z23	X24	Y24	Z24	X25	Y25	Z25	X26	Y26	Z26	X27	Y27	Z27	X28	Y28	Z28	X29	Y29	Z29	X30	Y30	Z30	X31	Y31	Z31	X32	Y32	Z32	X33	Y33	Z33	X34	Y34	Z34	X35	Y35	Z35	X36	Y36	Z36	X37	Y37	Z37	X38	Y38	Z38	X39	Y39	Z39	X40	Y40	Z40	X41	Y41	Z41	X42	Y42	Z42
																																																																																																																															
152	1.51	256.10892	1724.2948	-1499.46692	241.7532	1698.91821	-1357.96082	139.12383	1632.76587	-1525.60242	112.83561	1605.30713	-1386.98328	85.65957	1496.86743	-1456.31995	30.89171	1222.83276	-1449.64661	223.74695	1426.65613	-1468.21899	272.33984	1253.5802	-1468.17664	26.08768	1322.79553	-1397.09534	159.56248	1477.72961	-1636.3446	182.06879	1284.67322	-1726.99817	222.44775	1147.29028	-1747.87305	299.61511	1036.95178	-1742.69446	403.70001	964.34155	-1686.12512	371.85129	939.34631	-1725.45032	424.61017	900.15222	-1720.04431	162.83504	1452.70715	-1270.36096	118.0442	1263.96423	-1192.87305	119.1331	1119.13293	-1172.56104	137.80228	1002.10504	-1145.72363	182.2332	873.0351	-1153.05359	131.17877	873.04535	-1128.3396	164.43582	808.77881	-1118.69324	241.21945	953.3338	-1606.31628	280.63672	956.7724	-1350.79883	46.59258	999.48895	-1490.59375	57.53736	1003.12152	-1378.21338	113.77542	651.73138	-1635.53162	39.62518	464.79434	-1598.78101	-87.72874	316.65887	-1590.00232	-171.39334	107.96958	-1552.29834	-210.95595	93.78078	-1499.5625	-33.47707	31.37069	-1570.83105	283.80634	666.1167	-1258.86792	340.38068	467.15854	-1297.86011	345.48587	279.41156	-1285.47986	371.01218	87.09566	-1312.70959	342.29297	34.42555	-1367.81897	528.28931	44.10446	-1308.95813	136.10236	1771.65393	-1420.52502	-2845.92871	1033.67847	3356.8147	NaN	NaN	NaN
153	1.52	266.01477	1724.86182	-1497.34094	252.03342	1699.40125	-1355.98938	149.17989	1633.31201	-1523.50916	123.06945	1605.47656	-1384.94043	96.02425	1497.50647	-1454.28418	41.68825	1223.01147	-1448.17822	234.09016	1427.35474	-1466.54871	283.22034	1254.44666	-1466.50293	36.97267	1322.97314	-1394.67578	169.40549	1478.10706	-1634.91736	190.39174	1284.00696	-1724.55823	229.07356	1146.25122	-1745.42664	305.08734	1035.16553	-1740.66907	408.72293	961.44006	-1684.70313	376.36649	936.80389	-1723.83142	428.65521	896.94592	-1718.63538	174.06828	1452.64441	-1268.06348	128.34578	1263.49854	-1191.60742	130.23627	1118.9021	-1171.41956	148.21681	1001.72052	-1144.73926	191.56421	872.41949	-1151.80969	140.51169	872.89172	-1127.18982	173.21498	808.31525	-1117.55676	253.55438	953.21307	-1604.11304	292.55099	958.10364	-1348.68433	58.89429	999.68964	-1488.97827	69.56105	1004.69611	-1376.25391	125.43593	652.06146	-1634.24951	51.76297	465.65045	-1598.51172	-79.15868	320.63797	-1589.53491	-167.81288	113.87666	-1552.86609	-207.01744	100.99923	-1499.8988	-33.20086	31.37512	-1571.01733	294.18814	667.47827	-1257.24988	354.27585	469.31448	-1297.91028	356.5416	281.60425	-1284.01807	373.10556	88.21754	-1313.12341	342.78757	35.00704	-1367.44739	529.14465	41.57309	-1309.63391	146.10147	1772.03894	-1418.24927	NaN	NaN	NaN	NaN	NaN	NaN
154	1.53	275.9158	1725.5752	-1495.33496	262.22742	1700.00659	-1353.9895	159.18509	1634.05688	-1521.43762	133.5172	1606.09119	-1382.77307	106.44308	1498.41504	-1452.29724	52.49898	1223.2843	-1446.78357	244.31099	1428.26294	-1464.896	294.1239	1255.61902	-1464.83386	47.74044	1323.38074	-1392.80676	179.41917	1478.78271	-1633.42859	198.22926	1284.02502	-1722.57104	235.4048	1145.60205	-1742.91296	310.1886	1033.37036	-1738.47668	413.33008	958.28113	-1683.24268	380.12732	934.25641	-1722.31165	432.21359	893.70361	-1717.224	184.94807	1453.09595	-1266.36975	139.51093	1263.58496	-1190.30164	141.52213	1119.06787	-1170.26343	158.68182	1001.91357	-1143.60889	201.28883	872.25098	-1150.61572	150.19333	873.10663	-1125.98987	182.32782	808.2467	-1116.40112	265.87454	953.3869	-1601.26807	304.52667	959.86334	-1346.49011	71.46221	1000.40674	-1487.72327	81.32294	1006.45197	-1374.33716	137.69879	652.45502	-1632.7384	64.89829	466.82782	-1598.74414	-69.49675	325.08835	-1589.41614	-163.47424	120.47387	-1553.47131	-202.12825	109.41783	-1500.18408	-32.83854	31.36954	-1571.22827	305.10986	668.79248	-1256.48096	367.73596	470.45575	-1297.77222	366.36603	282.77667	-1282.86108	375.68256	88.84444	-1313.97241	343.54376	35.50958	-1367.24536	531.05481	39.76283	-1311.59656	156.11557	1772.67383	-1415.86365	-2845.92725	1033.72595	3356.82422	NaN	NaN	NaN
155	1.54	285.90164	1726.61804	-1493.33582	272.54062	1700.87012	-1352.026	169.17113	1635.06592	-1519.38977	143.592	1606.79224	-1380.80969	116.54237	1499.37964	-1450.37439	63.16188	1223.80017	-1445.4137	254.49957	1429.41614	-1463.27112	305.02774	1257.03333	-1463.14539	57.84893	1324.06006	-1391.16174	189.4315	1479.74756	-1631.8584	206.2363	1284.15991	-1720.25806	241.59944	1145.32458	-1740.35547	314.55527	1032.11902	-1736.58521	417.05881	955.52264	-1682.30237	383.29285	931.85345	-1720.88049	434.55911	890.59198	-1716.38037	195.67239	1453.94922	-1264.56848	151.41998	1264.34741	-1188.25269	152.93195	1119.63477	-1169.39722	169.29059	1002.69989	-1142.45215	211.21985	872.534	-1149.46619	160.49373	873.8717	-1124.84119	191.77415	808.68524	-1115.27209	278.82309	953.99524	-1597.94556	316.54581	961.97339	-1344.2804	83.86691	1001.32782	-1486.57251	92.86269	1008.08618	-1372.45667	150.2868	653.14038	-1631.49951	79.42953	468.01459	-1599.35791	-58.78101	330.03397	-1589.46851	-158.27162	127.8466	-1554.01367	-195.683	118.13287	-1500.0304	-32.5612	31.32993	-1571.44958	317.11365	669.85767	-1255.58789	378.55786	470.79749	-1298.09399	374.54947	282.76221	-1283.08252	378.68021	89.48488	-1313.91284	344.30664	36.02602	-1367.31531	533.08307	38.50044	-1312.3811	166.19434	1773.59741	-1413.64746	-2845.20337	1033.7937	3360.18018	NaN	NaN	NaN
